# xmcd CD database file
#
# Track frame offsets:
#	150
#	28390
#	58751
#	80408
#	115256
#	140261
#	168532
#	184937
#	210857
#	246157
#
# Disc length: 3540 seconds
#
# Revision: 0
# Processed by: cddbd v1.5.2PL0 Copyright (c) Steve Scherf et al.
# Submitted via: CDex 1.51
#
DISCID=8a0dd20a
DTITLE=Steve Masakowski - Things I Like
DYEAR=2003
DGENRE=Jazz
TTITLE0=We See
TTITLE1=Things I Like
TTITLE2=Tones for Jone's Bones
TTITLE3=Yin Yang
TTITLE4=Three for James
TTITLE5=Lil' Boy Man
TTITLE6=Stablemates
TTITLE7=Epistrophy
TTITLE8=Blood Count
TTITLE9=In a Sentimental Mood
EXTD=YEAR: 2003
EXTT0=
EXTT1=
EXTT2=
EXTT3=
EXTT4=
EXTT5=
EXTT6=
EXTT7=
EXTT8=
EXTT9=
PLAYORDER=
